<mxfile host="app.diagrams.net" agent="Mozilla/5.0 (X11; Linux x86_64; rv:131.0) Gecko/20100101 Firefox/131.0" version="24.7.17">
  <diagram name="Page-1" id="2OPp7FAaOo7LbOAuJkzw">
    <mxGraphModel dx="1171" dy="1345" grid="0" gridSize="10" guides="1" tooltips="1" connect="1" arrows="1" fold="1" page="0" pageScale="1" pageWidth="827" pageHeight="1169" math="0" shadow="0">
      <root>
        <mxCell id="0" />
        <mxCell id="1" parent="0" />
        <mxCell id="_oZ8LhXAHsHZBwFGsVQp-8" style="edgeStyle=none;curved=1;rounded=0;orthogonalLoop=1;jettySize=auto;html=1;exitX=0.5;exitY=1;exitDx=0;exitDy=0;entryX=0.5;entryY=0;entryDx=0;entryDy=0;fontSize=12;startSize=8;endSize=8;" edge="1" parent="1" source="_oZ8LhXAHsHZBwFGsVQp-1" target="_oZ8LhXAHsHZBwFGsVQp-3">
          <mxGeometry relative="1" as="geometry" />
        </mxCell>
        <mxCell id="_oZ8LhXAHsHZBwFGsVQp-1" value="" style="ellipse;whiteSpace=wrap;html=1;aspect=fixed;" vertex="1" parent="1">
          <mxGeometry x="51" y="-71" width="80" height="80" as="geometry" />
        </mxCell>
        <mxCell id="_oZ8LhXAHsHZBwFGsVQp-2" value="SET" style="text;html=1;align=center;verticalAlign=middle;whiteSpace=wrap;rounded=0;fontSize=16;" vertex="1" parent="1">
          <mxGeometry x="142" y="-44" width="60" height="30" as="geometry" />
        </mxCell>
        <mxCell id="_oZ8LhXAHsHZBwFGsVQp-3" value="" style="ellipse;whiteSpace=wrap;html=1;aspect=fixed;" vertex="1" parent="1">
          <mxGeometry x="51" y="43" width="80" height="80" as="geometry" />
        </mxCell>
        <mxCell id="_oZ8LhXAHsHZBwFGsVQp-4" value="INC" style="text;html=1;align=center;verticalAlign=middle;whiteSpace=wrap;rounded=0;fontSize=16;" vertex="1" parent="1">
          <mxGeometry x="142" y="70" width="60" height="30" as="geometry" />
        </mxCell>
        <mxCell id="_oZ8LhXAHsHZBwFGsVQp-10" value="" style="ellipse;whiteSpace=wrap;html=1;aspect=fixed;" vertex="1" parent="1">
          <mxGeometry x="51" y="193" width="80" height="80" as="geometry" />
        </mxCell>
        <mxCell id="_oZ8LhXAHsHZBwFGsVQp-11" value="INC" style="text;html=1;align=center;verticalAlign=middle;whiteSpace=wrap;rounded=0;fontSize=16;" vertex="1" parent="1">
          <mxGeometry x="142" y="220" width="60" height="30" as="geometry" />
        </mxCell>
        <mxCell id="_oZ8LhXAHsHZBwFGsVQp-12" value="" style="shape=cross;whiteSpace=wrap;html=1;size=0;" vertex="1" parent="1">
          <mxGeometry x="76.75" y="142" width="28.5" height="28" as="geometry" />
        </mxCell>
        <mxCell id="_oZ8LhXAHsHZBwFGsVQp-14" value="" style="shape=flexArrow;endArrow=classic;html=1;rounded=0;fontSize=12;startSize=8;endSize=11.225000000000001;curved=1;width=50.833333333333336;" edge="1" parent="1">
          <mxGeometry width="50" height="50" relative="1" as="geometry">
            <mxPoint x="247" y="103" as="sourcePoint" />
            <mxPoint x="376" y="103" as="targetPoint" />
          </mxGeometry>
        </mxCell>
        <mxCell id="_oZ8LhXAHsHZBwFGsVQp-15" style="edgeStyle=none;curved=1;rounded=0;orthogonalLoop=1;jettySize=auto;html=1;exitX=0.5;exitY=1;exitDx=0;exitDy=0;entryX=0.5;entryY=0;entryDx=0;entryDy=0;fontSize=12;startSize=8;endSize=8;" edge="1" parent="1" source="_oZ8LhXAHsHZBwFGsVQp-16" target="_oZ8LhXAHsHZBwFGsVQp-18">
          <mxGeometry relative="1" as="geometry" />
        </mxCell>
        <mxCell id="_oZ8LhXAHsHZBwFGsVQp-16" value="" style="ellipse;whiteSpace=wrap;html=1;aspect=fixed;" vertex="1" parent="1">
          <mxGeometry x="441" y="-71" width="80" height="80" as="geometry" />
        </mxCell>
        <mxCell id="_oZ8LhXAHsHZBwFGsVQp-17" value="SET" style="text;html=1;align=center;verticalAlign=middle;whiteSpace=wrap;rounded=0;fontSize=16;" vertex="1" parent="1">
          <mxGeometry x="532" y="-44" width="60" height="30" as="geometry" />
        </mxCell>
        <mxCell id="_oZ8LhXAHsHZBwFGsVQp-23" style="edgeStyle=none;curved=1;rounded=0;orthogonalLoop=1;jettySize=auto;html=1;exitX=0.5;exitY=1;exitDx=0;exitDy=0;entryX=0.5;entryY=0;entryDx=0;entryDy=0;fontSize=12;startSize=8;endSize=8;" edge="1" parent="1" source="_oZ8LhXAHsHZBwFGsVQp-18" target="_oZ8LhXAHsHZBwFGsVQp-20">
          <mxGeometry relative="1" as="geometry" />
        </mxCell>
        <mxCell id="_oZ8LhXAHsHZBwFGsVQp-18" value="" style="ellipse;whiteSpace=wrap;html=1;aspect=fixed;" vertex="1" parent="1">
          <mxGeometry x="441" y="43" width="80" height="80" as="geometry" />
        </mxCell>
        <mxCell id="_oZ8LhXAHsHZBwFGsVQp-19" value="INC" style="text;html=1;align=center;verticalAlign=middle;whiteSpace=wrap;rounded=0;fontSize=16;" vertex="1" parent="1">
          <mxGeometry x="532" y="70" width="60" height="30" as="geometry" />
        </mxCell>
        <mxCell id="_oZ8LhXAHsHZBwFGsVQp-20" value="" style="ellipse;whiteSpace=wrap;html=1;aspect=fixed;" vertex="1" parent="1">
          <mxGeometry x="441" y="170" width="80" height="80" as="geometry" />
        </mxCell>
        <mxCell id="_oZ8LhXAHsHZBwFGsVQp-21" value="INC" style="text;html=1;align=center;verticalAlign=middle;whiteSpace=wrap;rounded=0;fontSize=16;" vertex="1" parent="1">
          <mxGeometry x="532" y="220" width="60" height="30" as="geometry" />
        </mxCell>
      </root>
    </mxGraphModel>
  </diagram>
</mxfile>
